<svg xmlns="http://www.w3.org/2000/svg" xmlns:xlink="http://www.w3.org/1999/xlink" 
width="1476"
zoomAndPan="magnify" 
viewBox="0 0 1107 903.749995"
 height="1205" preserveAspectRatio="xMidYMid meet" version="1.0"><defs><g/><clipPath id="00cac2f4ae"><path d="M 0.152344 0 L 1106.847656 0 L 1106.847656 903.5 L 0.152344 903.5 Z M 0.152344 0 " clip-rule="nonzero"/></clipPath></defs><g clip-path="url(#00cac2f4ae)"><path fill="#ffffff" d="M 0.152344 0 L 1106.847656 0 L 1106.847656 903.5 L 0.152344 903.5 Z M 0.152344 0 " fill-opacity="1" fill-rule="nonzero"/><path fill="#ffffff" d="M 0.152344 0 L 1106.847656 0 L 1106.847656 903.5 L 0.152344 903.5 Z M 0.152344 0 " fill-opacity="1" fill-rule="nonzero"/></g><g fill="#000000" fill-opacity="1"><g transform="translate(218.880317, 482.491528)"><g><path d="M 46.28125 1.515625 C 36.800781 1.515625 29.164062 0.5 23.375 -1.53125 C 17.582031 -3.570312 13.171875 -6.375 10.140625 -9.9375 C 7.117188 -13.5 5.085938 -17.609375 4.046875 -22.265625 L 35.25 -22.265625 C 37.550781 -18.941406 41.226562 -17.28125 46.28125 -17.28125 C 51.320312 -17.28125 55 -18.941406 57.3125 -22.265625 C 57.5 -22.585938 57.59375 -22.878906 57.59375 -23.140625 C 57.59375 -24.015625 56.429688 -24.671875 54.109375 -25.109375 C 51.785156 -25.546875 48.3125 -25.878906 43.6875 -26.109375 C 37.863281 -26.367188 31.742188 -26.988281 25.328125 -27.96875 C 11.046875 -30.175781 3.90625 -35.921875 3.90625 -45.203125 C 3.90625 -45.984375 3.953125 -46.8125 4.046875 -47.6875 C 5.085938 -52.34375 7.117188 -56.453125 10.140625 -60.015625 C 13.171875 -63.578125 17.582031 -66.375 23.375 -68.40625 C 29.164062 -70.445312 36.800781 -71.46875 46.28125 -71.46875 C 55.75 -71.46875 63.378906 -70.445312 69.171875 -68.40625 C 74.960938 -66.375 79.367188 -63.578125 82.390625 -60.015625 C 85.421875 -56.453125 87.457031 -52.34375 88.5 -47.6875 L 57.3125 -47.6875 C 55 -51.007812 51.320312 -52.671875 46.28125 -52.671875 C 41.226562 -52.671875 37.550781 -51.007812 35.25 -47.6875 C 35.082031 -47.425781 35 -47.179688 35 -46.953125 C 35 -46.171875 36.113281 -45.59375 38.34375 -45.21875 C 40.570312 -44.84375 43.859375 -44.523438 48.203125 -44.265625 C 52.546875 -44.003906 57.171875 -43.582031 62.078125 -43 C 66.992188 -42.414062 71.59375 -41.398438 75.875 -39.953125 C 80.15625 -38.503906 83.5 -36.363281 85.90625 -33.53125 C 87.789062 -31.351562 88.734375 -28.585938 88.734375 -25.234375 C 88.734375 -24.296875 88.65625 -23.304688 88.5 -22.265625 C 87.457031 -17.609375 85.421875 -13.5 82.390625 -9.9375 C 79.367188 -6.375 74.960938 -3.570312 69.171875 -1.53125 C 63.378906 0.5 55.75 1.515625 46.28125 1.515625 Z M 46.28125 1.515625 "/></g></g></g><g fill="#000000" fill-opacity="1"><g transform="translate(320.513075, 482.491528)"><g><path d="M 59.75 0 L 30.359375 0 L 30.359375 -52.71875 L 2.921875 -52.71875 L 2.921875 -70.046875 L 87.1875 -70.046875 L 87.1875 -52.71875 L 59.75 -52.71875 Z M 59.75 0 "/></g></g></g><g fill="#000000" fill-opacity="1"><g transform="translate(419.60787, 482.491528)"><g><path d="M 52.96875 1.515625 C 35.65625 1.515625 22.910156 -2.046875 14.734375 -9.171875 C 7.515625 -15.484375 3.90625 -24.09375 3.90625 -35 C 3.90625 -45.863281 7.515625 -54.453125 14.734375 -60.765625 C 22.910156 -67.898438 35.65625 -71.46875 52.96875 -71.46875 C 70.28125 -71.46875 83.019531 -67.898438 91.1875 -60.765625 C 98.40625 -54.453125 102.015625 -45.863281 102.015625 -35 C 102.015625 -24.09375 98.40625 -15.484375 91.1875 -9.171875 C 83.019531 -2.046875 70.28125 1.515625 52.96875 1.515625 Z M 52.96875 -17.28125 C 60.0625 -17.28125 65.265625 -19.3125 68.578125 -23.375 C 71.242188 -26.664062 72.578125 -30.539062 72.578125 -35 C 72.578125 -39.457031 71.242188 -43.3125 68.578125 -46.5625 C 65.265625 -50.664062 60.0625 -52.71875 52.96875 -52.71875 C 45.875 -52.71875 40.648438 -50.664062 37.296875 -46.5625 C 34.628906 -43.3125 33.296875 -39.457031 33.296875 -35 C 33.296875 -30.539062 34.628906 -26.664062 37.296875 -23.375 C 40.648438 -19.3125 45.875 -17.28125 52.96875 -17.28125 Z M 52.96875 -17.28125 "/></g></g></g><g fill="#000000" fill-opacity="1"><g transform="translate(534.516118, 482.491528)"><g><path d="M 52.96875 1.515625 C 35.65625 1.515625 22.910156 -2.046875 14.734375 -9.171875 C 7.515625 -15.453125 3.90625 -24.046875 3.90625 -34.953125 C 3.90625 -45.847656 7.515625 -54.453125 14.734375 -60.765625 C 22.910156 -67.859375 35.65625 -71.40625 52.96875 -71.40625 C 63.113281 -71.40625 71.503906 -70.242188 78.140625 -67.921875 C 84.785156 -65.597656 89.945312 -62.414062 93.625 -58.375 C 97.300781 -54.34375 99.738281 -49.722656 100.9375 -44.515625 L 70.046875 -44.515625 C 66.953125 -49.953125 61.257812 -52.671875 52.96875 -52.671875 C 45.875 -52.671875 40.648438 -50.617188 37.296875 -46.515625 C 34.628906 -43.265625 33.296875 -39.410156 33.296875 -34.953125 C 33.296875 -30.492188 34.628906 -26.632812 37.296875 -23.375 C 40.648438 -19.28125 45.875 -17.234375 52.96875 -17.234375 C 61.257812 -17.234375 66.953125 -19.96875 70.046875 -25.4375 L 100.9375 -25.4375 C 99.738281 -20.195312 97.300781 -15.554688 93.625 -11.515625 C 89.945312 -7.484375 84.785156 -4.300781 78.140625 -1.96875 C 71.503906 0.351562 63.113281 1.515625 52.96875 1.515625 Z M 52.96875 1.515625 "/></g></g></g><g fill="#000000" fill-opacity="1"><g transform="translate(648.350636, 482.491528)"><g><path d="M 122.8125 0 L 84.640625 0 L 54.578125 -23.4375 L 37.203125 -11.5625 L 37.203125 0 L 7.8125 0 L 7.8125 -70.046875 L 37.203125 -70.046875 L 37.203125 -37.640625 L 84.34375 -70.046875 L 122.8125 -70.046875 L 72.640625 -35.78125 Z M 122.8125 0 "/></g></g></g><g fill="#000000" fill-opacity="1"><g transform="translate(780.878209, 482.491528)"><g><path d="M 68.34375 0 L 38.953125 0 L 38.953125 -33.1875 L 0.734375 -70.046875 L 33.296875 -70.046875 L 53.640625 -49.109375 L 73.953125 -70.046875 L 106.515625 -70.046875 L 68.34375 -33.1875 Z M 68.34375 0 "/></g></g></g></svg>