<svg xmlns="http://www.w3.org/2000/svg" xmlns:xlink="http://www.w3.org/1999/xlink" width="500" zoomAndPan="magnify" viewBox="0 0 375 374.999991" height="500" preserveAspectRatio="xMidYMid meet" version="1.0"><defs><clipPath id="aa2b8663b4"><path d="M 0 16.621094 L 368.25 16.621094 L 368.25 375 L 0 375 Z M 0 16.621094 " clip-rule="nonzero"/></clipPath></defs><g clip-path="url(#aa2b8663b4)"><path fill="#000000" d="M 331.976562 16.59375 L 173.433594 16.59375 C 151.496094 22.394531 138.105469 35.691406 136.605469 59.839844 C 136.757812 64.488281 136.90625 69.136719 137.058594 73.738281 C 137.058594 82.238281 137.007812 90.136719 137.058594 98.085938 C 137.058594 110.332031 136.957031 122.632812 137.007812 134.882812 L 36.175781 134.882812 C 34.027344 135.332031 31.921875 135.925781 29.855469 136.667969 C 27.789062 137.414062 25.785156 138.292969 23.839844 139.316406 C 21.898438 140.335938 20.035156 141.484375 18.25 142.765625 C 16.46875 144.046875 14.78125 145.441406 13.191406 146.957031 C 11.601562 148.46875 10.125 150.085938 8.757812 151.804688 C 7.390625 153.523438 6.152344 155.328125 5.035156 157.222656 C 3.921875 159.113281 2.941406 161.070312 2.097656 163.101562 C 1.253906 165.128906 0.554688 167.203125 0 169.328125 L 0 272.71875 C 0.589844 278.097656 2.375 283.046875 5.347656 287.566406 C 7.46875 290.511719 9.96875 293.097656 12.84375 295.316406 C 15.71875 297.539062 18.847656 299.304688 22.234375 300.613281 C 28.867188 303.796875 35.863281 305.414062 43.21875 305.464844 L 54.761719 305.464844 L 54.761719 338.359375 C 55.0625 350.558594 55.414062 362.808594 55.710938 375.054688 C 61.609375 369.457031 66.65625 364.558594 70.601562 360.707031 C 82.992188 348.558594 89.039062 342.359375 96.535156 334.359375 C 102.878906 327.660156 103.179688 327.261719 106.179688 324.160156 C 119.867188 309.863281 123.464844 308.164062 125.316406 307.414062 C 129.050781 305.816406 132.949219 305.101562 137.007812 305.261719 C 153.894531 305.914062 170.835938 305.5625 187.773438 305.464844 C 189.207031 305.523438 190.644531 305.511719 192.078125 305.425781 C 193.515625 305.335938 194.941406 305.175781 196.359375 304.9375 C 197.777344 304.703125 199.179688 304.394531 200.566406 304.011719 C 201.953125 303.628906 203.3125 303.179688 204.652344 302.65625 C 205.992188 302.132812 207.300781 301.539062 208.578125 300.882812 C 209.855469 300.222656 211.097656 299.5 212.300781 298.710938 C 213.503906 297.921875 214.660156 297.074219 215.777344 296.167969 C 216.890625 295.257812 217.957031 294.296875 218.972656 293.277344 C 219.984375 292.257812 220.945312 291.1875 221.847656 290.070312 C 222.753906 288.953125 223.597656 287.789062 224.378906 286.582031 C 225.164062 285.375 225.882812 284.132812 226.535156 282.851562 C 227.191406 281.570312 227.777344 280.261719 228.292969 278.917969 C 228.8125 277.578125 229.261719 276.210938 229.636719 274.824219 C 230.011719 273.433594 230.316406 272.03125 230.546875 270.613281 C 230.777344 269.191406 230.9375 267.761719 231.019531 266.328125 C 231.101562 264.890625 231.109375 263.453125 231.042969 262.019531 C 231.191406 246.820312 231.09375 231.570312 231.09375 216.371094 L 231.09375 192.074219 L 231.242188 186.976562 C 235.269531 186.816406 239.132812 187.535156 242.835938 189.125 C 244.632812 189.875 248.230469 191.523438 261.921875 205.875 C 264.921875 208.972656 265.269531 209.375 271.566406 216.074219 C 279.109375 224.070312 285.15625 230.269531 297.546875 242.421875 C 301.445312 246.269531 306.492188 251.167969 312.4375 256.769531 C 312.738281 244.519531 313.039062 232.289062 313.335938 220.074219 L 313.335938 187.175781 L 324.929688 187.175781 C 332.269531 187.121094 339.246094 185.503906 345.863281 182.328125 C 349.25 181.011719 352.378906 179.246094 355.253906 177.027344 C 358.128906 174.804688 360.628906 172.222656 362.753906 169.277344 C 365.746094 164.746094 367.546875 159.777344 368.148438 154.378906 L 368.148438 51.039062 C 367.59375 48.917969 366.890625 46.839844 366.046875 44.816406 C 365.203125 42.789062 364.222656 40.828125 363.105469 38.9375 C 361.988281 37.050781 360.75 35.246094 359.382812 33.527344 C 358.015625 31.808594 356.539062 30.191406 354.949219 28.675781 C 353.359375 27.164062 351.675781 25.765625 349.890625 24.488281 C 348.109375 23.207031 346.246094 22.058594 344.304688 21.035156 C 342.359375 20.015625 340.355469 19.132812 338.292969 18.386719 C 336.226562 17.644531 334.121094 17.046875 331.976562 16.59375 Z M 217.253906 262.019531 C 217.320312 263.003906 217.339844 263.992188 217.304688 264.984375 C 217.265625 265.972656 217.179688 266.957031 217.039062 267.9375 C 216.894531 268.917969 216.703125 269.886719 216.457031 270.84375 C 216.214844 271.804688 215.917969 272.746094 215.570312 273.675781 C 215.226562 274.601562 214.832031 275.507812 214.390625 276.394531 C 213.945312 277.277344 213.457031 278.136719 212.921875 278.96875 C 212.390625 279.804688 211.8125 280.605469 211.191406 281.375 C 210.570312 282.148438 209.910156 282.882812 209.210938 283.585938 C 208.515625 284.285156 207.78125 284.945312 207.011719 285.566406 C 206.238281 286.191406 205.441406 286.769531 204.609375 287.304688 C 203.777344 287.839844 202.917969 288.332031 202.035156 288.777344 C 201.152344 289.21875 200.246094 289.617188 199.320312 289.964844 C 198.394531 290.3125 197.449219 290.609375 196.492188 290.855469 C 195.535156 291.101562 194.566406 291.296875 193.585938 291.441406 C 192.609375 291.582031 191.625 291.671875 190.636719 291.710938 C 189.648438 291.75 188.660156 291.734375 187.671875 291.664062 C 168.136719 291.816406 148.648438 291.914062 129.113281 291.566406 C 127.699219 291.488281 126.296875 291.574219 124.902344 291.8125 C 123.507812 292.054688 122.15625 292.449219 120.847656 292.992188 C 119.542969 293.539062 118.3125 294.222656 117.160156 295.042969 C 116.007812 295.867188 114.964844 296.804688 114.023438 297.863281 C 106.828125 305.261719 98.832031 311.914062 92.238281 319.863281 C 84.785156 328.820312 76.59375 337.035156 67.652344 344.507812 C 67.804688 340.609375 68.355469 322.210938 68.601562 302.113281 C 68.765625 300.59375 68.625 299.105469 68.171875 297.644531 C 67.71875 296.1875 67 294.875 66.003906 293.714844 C 64.925781 292.878906 63.730469 292.28125 62.414062 291.925781 C 61.097656 291.570312 59.761719 291.484375 58.410156 291.664062 C 53.265625 291.863281 48.066406 291.765625 42.921875 291.664062 C 41.949219 291.703125 40.980469 291.695312 40.011719 291.632812 C 39.042969 291.570312 38.078125 291.457031 37.121094 291.296875 C 36.164062 291.136719 35.21875 290.925781 34.285156 290.664062 C 33.347656 290.402344 32.429688 290.09375 31.523438 289.738281 C 30.621094 289.382812 29.738281 288.980469 28.878906 288.53125 C 28.015625 288.085938 27.179688 287.59375 26.371094 287.058594 C 25.558594 286.523438 24.777344 285.945312 24.027344 285.332031 C 23.277344 284.714844 22.5625 284.058594 21.878906 283.371094 C 21.195312 282.679688 20.550781 281.953125 19.945312 281.195312 C 19.339844 280.4375 18.773438 279.648438 18.246094 278.832031 C 17.722656 278.015625 17.242188 277.171875 16.804688 276.304688 C 16.367188 275.4375 15.972656 274.550781 15.628906 273.640625 C 15.285156 272.734375 14.988281 271.8125 14.738281 270.871094 C 14.488281 269.933594 14.289062 268.984375 14.140625 268.023438 C 13.988281 267.0625 13.886719 266.097656 13.839844 265.128906 C 13.789062 264.160156 13.789062 263.1875 13.839844 262.21875 C 13.691406 234.421875 13.691406 206.589844 13.839844 178.726562 C 13.78125 177.753906 13.777344 176.785156 13.820312 175.8125 C 13.863281 174.839844 13.957031 173.871094 14.101562 172.910156 C 14.246094 171.945312 14.4375 170.996094 14.683594 170.050781 C 14.925781 169.109375 15.214844 168.183594 15.554688 167.269531 C 15.894531 166.359375 16.28125 165.46875 16.714844 164.59375 C 17.144531 163.722656 17.621094 162.875 18.144531 162.054688 C 18.664062 161.234375 19.226562 160.441406 19.828125 159.675781 C 20.429688 158.914062 21.070312 158.183594 21.75 157.484375 C 22.429688 156.789062 23.144531 156.128906 23.890625 155.507812 C 24.636719 154.882812 25.414062 154.300781 26.222656 153.761719 C 27.03125 153.21875 27.867188 152.71875 28.726562 152.265625 C 29.585938 151.808594 30.46875 151.402344 31.371094 151.039062 C 32.273438 150.675781 33.191406 150.359375 34.125 150.09375 C 35.0625 149.824219 36.007812 149.609375 36.964844 149.4375 C 37.921875 149.269531 38.886719 149.152344 39.859375 149.082031 C 40.828125 149.015625 41.800781 148.996094 42.769531 149.03125 C 74.300781 148.878906 105.828125 148.828125 137.355469 148.878906 C 137.480469 150.621094 137.710938 152.34375 138.054688 154.054688 C 138.394531 155.765625 138.84375 157.445312 139.402344 159.097656 C 139.960938 160.75 140.621094 162.359375 141.382812 163.929688 C 142.144531 165.496094 143.003906 167.007812 143.960938 168.46875 C 144.917969 169.925781 145.964844 171.316406 147.097656 172.640625 C 148.230469 173.964844 149.445312 175.210938 150.738281 176.382812 C 152.03125 177.550781 153.394531 178.632812 154.824219 179.628906 C 156.257812 180.621094 157.746094 181.523438 159.292969 182.328125 C 162.5625 183.945312 165.972656 185.164062 169.527344 185.980469 C 173.082031 186.800781 176.679688 187.199219 180.328125 187.175781 C 185.921875 187.226562 191.519531 187.277344 197.117188 187.277344 C 203.8125 187.375 210.558594 187.375 217.253906 187.277344 C 217.402344 212.171875 217.402344 237.085938 217.253906 262.019531 Z M 354.308594 143.929688 C 354.359375 144.902344 354.359375 145.871094 354.308594 146.84375 C 354.257812 147.8125 354.15625 148.78125 354.003906 149.738281 C 353.851562 150.699219 353.652344 151.648438 353.402344 152.589844 C 353.152344 153.527344 352.851562 154.453125 352.507812 155.359375 C 352.160156 156.269531 351.765625 157.15625 351.328125 158.023438 C 350.890625 158.890625 350.40625 159.734375 349.882812 160.550781 C 349.355469 161.367188 348.789062 162.15625 348.179688 162.914062 C 347.570312 163.671875 346.925781 164.398438 346.242188 165.089844 C 345.558594 165.78125 344.839844 166.433594 344.089844 167.050781 C 343.335938 167.664062 342.554688 168.242188 341.746094 168.777344 C 340.933594 169.3125 340.097656 169.800781 339.234375 170.25 C 338.371094 170.699219 337.488281 171.101562 336.585938 171.457031 C 335.679688 171.8125 334.761719 172.121094 333.824219 172.378906 C 332.886719 172.640625 331.941406 172.851562 330.980469 173.011719 C 330.023438 173.171875 329.058594 173.285156 328.089844 173.34375 C 327.121094 173.40625 326.148438 173.417969 325.179688 173.378906 C 320.03125 173.476562 314.835938 173.578125 309.691406 173.378906 C 308.34375 173.183594 307.015625 173.265625 305.707031 173.621094 C 304.394531 173.976562 303.207031 174.578125 302.144531 175.425781 C 301.144531 176.585938 300.417969 177.894531 299.957031 179.355469 C 299.496094 180.8125 299.34375 182.304688 299.496094 183.824219 C 299.746094 203.925781 300.347656 222.273438 300.445312 226.222656 C 291.519531 218.734375 283.328125 210.519531 275.863281 201.574219 C 269.316406 193.625 261.273438 186.976562 254.128906 179.578125 C 253.183594 178.515625 252.132812 177.574219 250.976562 176.75 C 249.820312 175.925781 248.585938 175.242188 247.277344 174.699219 C 245.964844 174.152344 244.609375 173.757812 243.210938 173.519531 C 241.8125 173.28125 240.40625 173.199219 238.988281 173.277344 C 236.339844 173.328125 233.691406 173.378906 231.042969 173.378906 C 226.296875 173.425781 221.597656 173.476562 216.851562 173.476562 C 204.710938 173.527344 192.570312 173.425781 180.425781 173.378906 C 164.136719 173.226562 153.246094 164.027344 151.246094 148.878906 C 150.984375 147.171875 150.851562 145.457031 150.847656 143.730469 L 150.847656 134.882812 C 150.746094 109.984375 150.699219 85.085938 150.847656 60.1875 C 150.785156 59.21875 150.777344 58.246094 150.816406 57.273438 C 150.859375 56.300781 150.949219 55.332031 151.09375 54.371094 C 151.238281 53.40625 151.429688 52.453125 151.671875 51.511719 C 151.914062 50.570312 152.207031 49.640625 152.546875 48.730469 C 152.890625 47.820312 153.277344 46.925781 153.710938 46.058594 C 154.144531 45.1875 154.625 44.339844 155.148438 43.519531 C 155.671875 42.699219 156.238281 41.910156 156.84375 41.148438 C 157.449219 40.386719 158.09375 39.660156 158.777344 38.96875 C 159.460938 38.273438 160.179688 37.617188 160.929688 37 C 161.683594 36.382812 162.464844 35.808594 163.277344 35.273438 C 164.089844 34.738281 164.929688 34.246094 165.792969 33.800781 C 166.660156 33.355469 167.542969 32.953125 168.449219 32.601562 C 169.355469 32.246094 170.28125 31.941406 171.21875 31.6875 C 172.15625 31.429688 173.105469 31.222656 174.066406 31.066406 C 175.027344 30.910156 175.992188 30.804688 176.964844 30.75 C 177.933594 30.699219 178.90625 30.695312 179.878906 30.742188 C 228.34375 30.492188 276.84375 30.492188 325.378906 30.742188 C 326.351562 30.710938 327.324219 30.726562 328.292969 30.796875 C 329.261719 30.863281 330.226562 30.980469 331.183594 31.152344 C 332.140625 31.320312 333.089844 31.539062 334.023438 31.804688 C 334.960938 32.074219 335.878906 32.386719 336.78125 32.75 C 337.683594 33.113281 338.5625 33.523438 339.425781 33.976562 C 340.285156 34.433594 341.117188 34.929688 341.925781 35.472656 C 342.734375 36.015625 343.511719 36.597656 344.257812 37.21875 C 345.007812 37.839844 345.71875 38.5 346.398438 39.199219 C 347.078125 39.894531 347.71875 40.625 348.320312 41.386719 C 348.925781 42.152344 349.484375 42.945312 350.007812 43.765625 C 350.527344 44.589844 351.003906 45.4375 351.4375 46.308594 C 351.867188 47.179688 352.253906 48.070312 352.59375 48.984375 C 352.933594 49.894531 353.226562 50.820312 353.46875 51.765625 C 353.710938 52.707031 353.90625 53.660156 354.050781 54.621094 C 354.191406 55.582031 354.285156 56.550781 354.332031 57.523438 C 354.375 58.496094 354.367188 59.46875 354.308594 60.4375 C 354.460938 88.285156 354.460938 116.117188 354.308594 143.929688 Z M 324.425781 84.042969 L 182.832031 84.042969 C 182.339844 84.042969 181.851562 83.992188 181.367188 83.898438 C 180.886719 83.800781 180.417969 83.660156 179.960938 83.46875 C 179.507812 83.28125 179.074219 83.050781 178.667969 82.777344 C 178.257812 82.503906 177.878906 82.191406 177.53125 81.84375 C 177.183594 81.496094 176.871094 81.117188 176.597656 80.707031 C 176.324219 80.300781 176.09375 79.867188 175.90625 79.410156 C 175.71875 78.957031 175.574219 78.488281 175.480469 78.003906 C 175.382812 77.523438 175.335938 77.035156 175.335938 76.542969 C 175.335938 76.050781 175.382812 75.5625 175.480469 75.078125 C 175.574219 74.597656 175.71875 74.128906 175.90625 73.671875 C 176.09375 73.21875 176.324219 72.785156 176.597656 72.375 C 176.871094 71.964844 177.183594 71.585938 177.53125 71.238281 C 177.878906 70.890625 178.257812 70.582031 178.667969 70.308594 C 179.074219 70.035156 179.507812 69.800781 179.960938 69.613281 C 180.417969 69.425781 180.886719 69.28125 181.367188 69.1875 C 181.851562 69.089844 182.339844 69.042969 182.832031 69.042969 L 324.425781 69.042969 C 324.917969 69.042969 325.402344 69.089844 325.886719 69.1875 C 326.371094 69.28125 326.839844 69.425781 327.292969 69.613281 C 327.746094 69.800781 328.179688 70.035156 328.589844 70.308594 C 328.996094 70.582031 329.375 70.890625 329.722656 71.238281 C 330.074219 71.585938 330.382812 71.964844 330.65625 72.375 C 330.929688 72.785156 331.160156 73.21875 331.347656 73.671875 C 331.539062 74.128906 331.679688 74.597656 331.777344 75.078125 C 331.871094 75.5625 331.917969 76.050781 331.917969 76.542969 C 331.917969 77.035156 331.871094 77.523438 331.777344 78.003906 C 331.679688 78.488281 331.539062 78.957031 331.347656 79.410156 C 331.160156 79.867188 330.929688 80.300781 330.65625 80.707031 C 330.382812 81.117188 330.074219 81.496094 329.722656 81.84375 C 329.375 82.191406 328.996094 82.503906 328.589844 82.777344 C 328.179688 83.050781 327.746094 83.28125 327.292969 83.46875 C 326.839844 83.660156 326.371094 83.800781 325.886719 83.898438 C 325.402344 83.992188 324.917969 84.042969 324.425781 84.042969 Z M 273.855469 123.796875 L 187.167969 123.796875 C 186.675781 123.796875 186.1875 123.75 185.707031 123.652344 C 185.222656 123.558594 184.753906 123.414062 184.300781 123.226562 C 183.84375 123.039062 183.414062 122.808594 183.003906 122.535156 C 182.59375 122.261719 182.214844 121.949219 181.867188 121.601562 C 181.519531 121.253906 181.210938 120.875 180.9375 120.464844 C 180.664062 120.054688 180.433594 119.621094 180.242188 119.167969 C 180.054688 118.714844 179.914062 118.242188 179.816406 117.761719 C 179.722656 117.277344 179.671875 116.789062 179.671875 116.296875 C 179.671875 115.804688 179.722656 115.316406 179.816406 114.835938 C 179.914062 114.351562 180.054688 113.882812 180.242188 113.429688 C 180.433594 112.972656 180.664062 112.542969 180.9375 112.132812 C 181.210938 111.722656 181.519531 111.34375 181.867188 110.996094 C 182.214844 110.648438 182.59375 110.335938 183.003906 110.0625 C 183.414062 109.789062 183.84375 109.558594 184.300781 109.371094 C 184.753906 109.179688 185.222656 109.039062 185.707031 108.941406 C 186.1875 108.847656 186.675781 108.800781 187.167969 108.800781 L 273.855469 108.800781 C 274.347656 108.800781 274.832031 108.847656 275.316406 108.941406 C 275.800781 109.039062 276.265625 109.179688 276.722656 109.371094 C 277.175781 109.558594 277.609375 109.789062 278.019531 110.0625 C 278.425781 110.335938 278.804688 110.648438 279.152344 110.996094 C 279.5 111.34375 279.8125 111.722656 280.085938 112.132812 C 280.359375 112.542969 280.589844 112.972656 280.777344 113.429688 C 280.964844 113.882812 281.109375 114.351562 281.203125 114.835938 C 281.300781 115.316406 281.347656 115.804688 281.347656 116.296875 C 281.347656 116.789062 281.300781 117.277344 281.203125 117.761719 C 281.109375 118.242188 280.964844 118.714844 280.777344 119.167969 C 280.589844 119.621094 280.359375 120.054688 280.085938 120.464844 C 279.8125 120.875 279.5 121.253906 279.152344 121.601562 C 278.804688 121.949219 278.425781 122.261719 278.019531 122.535156 C 277.609375 122.808594 277.175781 123.039062 276.722656 123.226562 C 276.265625 123.414062 275.800781 123.558594 275.316406 123.652344 C 274.832031 123.75 274.347656 123.796875 273.855469 123.796875 Z M 185.289062 247.328125 L 43.695312 247.328125 C 43.203125 247.328125 42.714844 247.28125 42.234375 247.183594 C 41.75 247.089844 41.28125 246.945312 40.828125 246.757812 C 40.371094 246.570312 39.941406 246.339844 39.53125 246.066406 C 39.121094 245.792969 38.742188 245.480469 38.394531 245.132812 C 38.046875 244.785156 37.738281 244.40625 37.464844 243.996094 C 37.191406 243.585938 36.960938 243.15625 36.769531 242.699219 C 36.582031 242.246094 36.441406 241.777344 36.34375 241.292969 C 36.25 240.808594 36.199219 240.324219 36.199219 239.832031 C 36.199219 239.339844 36.25 238.851562 36.34375 238.367188 C 36.441406 237.882812 36.582031 237.414062 36.769531 236.960938 C 36.960938 236.503906 37.191406 236.074219 37.464844 235.664062 C 37.738281 235.253906 38.046875 234.875 38.394531 234.527344 C 38.742188 234.179688 39.121094 233.867188 39.53125 233.59375 C 39.941406 233.320312 40.371094 233.089844 40.828125 232.902344 C 41.28125 232.714844 41.75 232.570312 42.234375 232.476562 C 42.714844 232.378906 43.203125 232.332031 43.695312 232.332031 L 185.289062 232.332031 C 185.78125 232.332031 186.269531 232.378906 186.75 232.476562 C 187.234375 232.570312 187.703125 232.714844 188.15625 232.902344 C 188.613281 233.089844 189.042969 233.320312 189.453125 233.59375 C 189.863281 233.867188 190.242188 234.179688 190.589844 234.527344 C 190.9375 234.875 191.246094 235.253906 191.519531 235.664062 C 191.792969 236.074219 192.023438 236.503906 192.214844 236.960938 C 192.402344 237.414062 192.542969 237.882812 192.640625 238.367188 C 192.734375 238.851562 192.785156 239.339844 192.785156 239.832031 C 192.785156 240.324219 192.734375 240.808594 192.640625 241.292969 C 192.542969 241.777344 192.402344 242.246094 192.214844 242.699219 C 192.023438 243.15625 191.792969 243.585938 191.519531 243.996094 C 191.246094 244.40625 190.9375 244.785156 190.589844 245.132812 C 190.242188 245.480469 189.863281 245.792969 189.453125 246.066406 C 189.042969 246.339844 188.613281 246.570312 188.15625 246.757812 C 187.703125 246.945312 187.234375 247.089844 186.75 247.183594 C 186.269531 247.28125 185.78125 247.328125 185.289062 247.328125 Z M 44.300781 192.074219 L 130.984375 192.074219 C 131.476562 192.074219 131.964844 192.125 132.449219 192.21875 C 132.929688 192.316406 133.398438 192.457031 133.855469 192.644531 C 134.308594 192.835938 134.742188 193.066406 135.148438 193.339844 C 135.558594 193.613281 135.9375 193.921875 136.285156 194.273438 C 136.632812 194.621094 136.945312 195 137.21875 195.40625 C 137.492188 195.816406 137.722656 196.25 137.910156 196.703125 C 138.097656 197.160156 138.242188 197.628906 138.335938 198.113281 C 138.433594 198.59375 138.480469 199.082031 138.480469 199.574219 C 138.480469 200.066406 138.433594 200.554688 138.335938 201.039062 C 138.242188 201.519531 138.097656 201.988281 137.910156 202.445312 C 137.722656 202.898438 137.492188 203.332031 137.21875 203.742188 C 136.945312 204.148438 136.632812 204.527344 136.285156 204.878906 C 135.9375 205.226562 135.558594 205.535156 135.148438 205.808594 C 134.742188 206.082031 134.308594 206.3125 133.855469 206.503906 C 133.398438 206.691406 132.929688 206.832031 132.449219 206.929688 C 131.964844 207.027344 131.476562 207.074219 130.984375 207.074219 L 44.300781 207.074219 C 43.808594 207.074219 43.320312 207.027344 42.835938 206.929688 C 42.355469 206.832031 41.886719 206.691406 41.433594 206.503906 C 40.976562 206.3125 40.546875 206.082031 40.136719 205.808594 C 39.726562 205.535156 39.347656 205.226562 39 204.878906 C 38.652344 204.527344 38.339844 204.148438 38.066406 203.742188 C 37.792969 203.332031 37.5625 202.898438 37.375 202.445312 C 37.1875 201.988281 37.046875 201.519531 36.949219 201.039062 C 36.851562 200.554688 36.804688 200.066406 36.804688 199.574219 C 36.804688 199.082031 36.851562 198.59375 36.949219 198.113281 C 37.046875 197.628906 37.1875 197.160156 37.375 196.703125 C 37.5625 196.25 37.792969 195.816406 38.066406 195.40625 C 38.339844 195 38.652344 194.621094 39 194.273438 C 39.347656 193.921875 39.726562 193.613281 40.136719 193.339844 C 40.546875 193.066406 40.976562 192.835938 41.433594 192.644531 C 41.886719 192.457031 42.355469 192.316406 42.835938 192.21875 C 43.320312 192.125 43.808594 192.074219 44.300781 192.074219 Z M 44.300781 192.074219 " fill-opacity="1" fill-rule="nonzero"/></g></svg>