<svg xmlns="http://www.w3.org/2000/svg" xmlns:xlink="http://www.w3.org/1999/xlink" width="500" zoomAndPan="magnify" viewBox="0 0 375 374.999991" height="500" preserveAspectRatio="xMidYMid meet" version="1.0"><defs><clipPath id="7f6474ae6c"><path d="M 12.164062 37.5 L 363.164062 37.5 L 363.164062 360 L 12.164062 360 Z M 12.164062 37.5 " clip-rule="nonzero"/></clipPath></defs><g clip-path="url(#7f6474ae6c)"><path fill="#000000" d="M 339.578125 37.5 L 77.871094 37.5 C 77.101562 37.5 76.328125 37.539062 75.5625 37.613281 C 74.792969 37.6875 74.027344 37.800781 73.269531 37.953125 C 72.511719 38.101562 71.765625 38.289062 71.027344 38.515625 C 70.285156 38.738281 69.558594 38.996094 68.847656 39.292969 C 68.132812 39.589844 67.433594 39.917969 66.753906 40.28125 C 66.074219 40.644531 65.410156 41.042969 64.769531 41.46875 C 64.125 41.898438 63.507812 42.359375 62.910156 42.847656 C 62.3125 43.335938 61.742188 43.855469 61.195312 44.398438 C 60.648438 44.945312 60.128906 45.515625 59.640625 46.113281 C 59.148438 46.707031 58.691406 47.328125 58.261719 47.96875 C 57.832031 48.609375 57.433594 49.273438 57.070312 49.953125 C 56.707031 50.632812 56.375 51.328125 56.082031 52.042969 C 55.785156 52.753906 55.527344 53.480469 55.300781 54.21875 C 55.078125 54.957031 54.890625 55.703125 54.738281 56.460938 C 54.589844 57.21875 54.476562 57.980469 54.398438 58.746094 C 54.324219 59.515625 54.285156 60.285156 54.285156 61.054688 L 54.285156 79.566406 L 38.839844 79.566406 C 37.96875 79.566406 37.097656 79.609375 36.226562 79.695312 C 35.359375 79.777344 34.496094 79.90625 33.636719 80.078125 C 32.78125 80.246094 31.933594 80.460938 31.097656 80.710938 C 30.261719 80.964844 29.441406 81.257812 28.632812 81.59375 C 27.824219 81.925781 27.039062 82.300781 26.265625 82.710938 C 25.496094 83.121094 24.746094 83.570312 24.019531 84.054688 C 23.296875 84.539062 22.59375 85.058594 21.917969 85.613281 C 21.242188 86.167969 20.597656 86.75 19.980469 87.367188 C 19.359375 87.984375 18.773438 88.632812 18.222656 89.304688 C 17.667969 89.980469 17.148438 90.679688 16.660156 91.40625 C 16.175781 92.132812 15.726562 92.878906 15.316406 93.648438 C 14.902344 94.417969 14.53125 95.207031 14.195312 96.011719 C 13.863281 96.816406 13.566406 97.636719 13.316406 98.472656 C 13.0625 99.308594 12.847656 100.152344 12.679688 101.007812 C 12.507812 101.863281 12.378906 102.726562 12.292969 103.59375 C 12.207031 104.464844 12.164062 105.335938 12.164062 106.207031 L 12.164062 277.273438 C 12.164062 278.144531 12.207031 279.015625 12.292969 279.882812 C 12.378906 280.75 12.507812 281.613281 12.679688 282.46875 C 12.847656 283.324219 13.0625 284.171875 13.316406 285.003906 C 13.566406 285.839844 13.863281 286.660156 14.195312 287.46875 C 14.53125 288.273438 14.902344 289.0625 15.316406 289.832031 C 15.726562 290.601562 16.175781 291.347656 16.660156 292.074219 C 17.148438 292.796875 17.667969 293.5 18.222656 294.171875 C 18.773438 294.847656 19.359375 295.492188 19.980469 296.109375 C 20.597656 296.726562 21.242188 297.3125 21.917969 297.867188 C 22.59375 298.417969 23.296875 298.9375 24.019531 299.421875 C 24.746094 299.90625 25.496094 300.355469 26.265625 300.765625 C 27.039062 301.179688 27.824219 301.550781 28.632812 301.886719 C 29.441406 302.21875 30.261719 302.511719 31.097656 302.765625 C 31.933594 303.019531 32.78125 303.230469 33.636719 303.402344 C 34.496094 303.570312 35.359375 303.699219 36.226562 303.785156 C 37.097656 303.871094 37.96875 303.914062 38.839844 303.914062 L 54.285156 303.914062 L 54.285156 352.988281 C 54.292969 353.617188 54.378906 354.234375 54.546875 354.84375 C 54.714844 355.449219 54.960938 356.023438 55.28125 356.5625 C 55.601562 357.105469 55.988281 357.597656 56.4375 358.035156 C 56.886719 358.476562 57.386719 358.851562 57.9375 359.160156 C 58.992188 359.707031 60.113281 359.988281 61.304688 360 C 62.714844 359.972656 64.023438 359.597656 65.238281 358.878906 L 147.652344 303.914062 L 294.367188 303.914062 C 295.242188 303.914062 296.113281 303.871094 296.984375 303.785156 C 297.851562 303.699219 298.714844 303.570312 299.574219 303.402344 C 300.429688 303.230469 301.277344 303.019531 302.113281 302.765625 C 302.949219 302.511719 303.769531 302.21875 304.578125 301.886719 C 305.382812 301.550781 306.171875 301.179688 306.941406 300.765625 C 307.714844 300.355469 308.460938 299.90625 309.1875 299.421875 C 309.914062 298.9375 310.617188 298.417969 311.292969 297.867188 C 311.964844 297.3125 312.613281 296.726562 313.230469 296.109375 C 313.847656 295.492188 314.433594 294.847656 314.988281 294.171875 C 315.542969 293.5 316.0625 292.796875 316.546875 292.074219 C 317.035156 291.347656 317.480469 290.601562 317.894531 289.832031 C 318.304688 289.0625 318.679688 288.273438 319.011719 287.46875 C 319.347656 286.660156 319.640625 285.839844 319.894531 285.003906 C 320.148438 284.171875 320.359375 283.324219 320.53125 282.46875 C 320.703125 281.613281 320.828125 280.75 320.914062 279.882812 C 321 279.015625 321.042969 278.144531 321.042969 277.273438 L 321.042969 261.847656 L 339.578125 261.847656 C 340.347656 261.847656 341.121094 261.808594 341.890625 261.734375 C 342.65625 261.660156 343.421875 261.546875 344.179688 261.394531 C 344.9375 261.246094 345.683594 261.058594 346.421875 260.832031 C 347.164062 260.609375 347.890625 260.351562 348.601562 260.054688 C 349.316406 259.757812 350.015625 259.429688 350.695312 259.066406 C 351.375 258.703125 352.039062 258.304688 352.679688 257.878906 C 353.324219 257.449219 353.941406 256.988281 354.539062 256.5 C 355.136719 256.011719 355.710938 255.492188 356.253906 254.949219 C 356.800781 254.402344 357.320312 253.832031 357.808594 253.234375 C 358.300781 252.640625 358.757812 252.019531 359.1875 251.378906 C 359.617188 250.738281 360.015625 250.078125 360.378906 249.394531 C 360.742188 248.714844 361.074219 248.019531 361.367188 247.304688 C 361.664062 246.59375 361.925781 245.867188 362.148438 245.128906 C 362.371094 244.390625 362.558594 243.644531 362.710938 242.886719 C 362.859375 242.128906 362.972656 241.367188 363.050781 240.601562 C 363.125 239.832031 363.164062 239.0625 363.164062 238.292969 L 363.164062 61.054688 C 363.164062 60.285156 363.125 59.515625 363.050781 58.746094 C 362.972656 57.980469 362.859375 57.21875 362.710938 56.460938 C 362.558594 55.703125 362.371094 54.957031 362.148438 54.21875 C 361.925781 53.480469 361.664062 52.753906 361.367188 52.042969 C 361.074219 51.328125 360.742188 50.632812 360.378906 49.953125 C 360.015625 49.273438 359.617188 48.609375 359.1875 47.96875 C 358.757812 47.328125 358.300781 46.707031 357.808594 46.113281 C 357.320312 45.515625 356.800781 44.945312 356.253906 44.398438 C 355.710938 43.855469 355.136719 43.335938 354.539062 42.847656 C 353.941406 42.359375 353.324219 41.898438 352.679688 41.46875 C 352.039062 41.042969 351.375 40.644531 350.695312 40.28125 C 350.015625 39.917969 349.316406 39.589844 348.601562 39.292969 C 347.890625 38.996094 347.164062 38.738281 346.421875 38.515625 C 345.683594 38.289062 344.9375 38.101562 344.179688 37.953125 C 343.421875 37.800781 342.65625 37.6875 341.890625 37.613281 C 341.121094 37.539062 340.347656 37.5 339.578125 37.5 Z M 307.003906 277.273438 C 307.003906 278.101562 306.921875 278.921875 306.761719 279.734375 C 306.597656 280.546875 306.359375 281.335938 306.042969 282.101562 C 305.726562 282.867188 305.335938 283.59375 304.875 284.28125 C 304.414062 284.972656 303.890625 285.609375 303.304688 286.195312 C 302.714844 286.78125 302.078125 287.304688 301.386719 287.765625 C 300.699219 288.226562 299.96875 288.613281 299.203125 288.929688 C 298.4375 289.246094 297.648438 289.488281 296.832031 289.648438 C 296.019531 289.808594 295.199219 289.890625 294.367188 289.890625 L 145.546875 289.890625 C 144.128906 289.898438 142.820312 290.273438 141.613281 291.011719 L 68.324219 339.949219 L 68.324219 296.902344 C 68.324219 296.441406 68.28125 295.984375 68.191406 295.535156 C 68.101562 295.082031 67.96875 294.644531 67.792969 294.21875 C 67.613281 293.792969 67.398438 293.390625 67.140625 293.007812 C 66.886719 292.625 66.59375 292.269531 66.269531 291.945312 C 65.945312 291.621094 65.589844 291.328125 65.207031 291.074219 C 64.824219 290.816406 64.417969 290.601562 63.992188 290.425781 C 63.566406 290.25 63.128906 290.117188 62.675781 290.027344 C 62.222656 289.9375 61.765625 289.890625 61.304688 289.890625 L 38.839844 289.890625 C 38.011719 289.890625 37.191406 289.808594 36.375 289.648438 C 35.5625 289.488281 34.773438 289.246094 34.007812 288.929688 C 33.238281 288.613281 32.511719 288.226562 31.820312 287.765625 C 31.132812 287.304688 30.492188 286.78125 29.90625 286.195312 C 29.320312 285.609375 28.796875 284.972656 28.335938 284.28125 C 27.875 283.59375 27.484375 282.867188 27.167969 282.101562 C 26.851562 281.335938 26.609375 280.546875 26.449219 279.734375 C 26.285156 278.921875 26.207031 278.101562 26.207031 277.273438 L 26.207031 106.207031 C 26.207031 105.378906 26.285156 104.558594 26.449219 103.746094 C 26.609375 102.933594 26.851562 102.144531 27.167969 101.378906 C 27.484375 100.613281 27.875 99.882812 28.335938 99.195312 C 28.796875 98.507812 29.320312 97.867188 29.90625 97.28125 C 30.492188 96.695312 31.132812 96.175781 31.820312 95.714844 C 32.511719 95.253906 33.238281 94.863281 34.007812 94.546875 C 34.773438 94.230469 35.5625 93.992188 36.375 93.828125 C 37.191406 93.667969 38.011719 93.585938 38.839844 93.585938 L 294.367188 93.585938 C 295.199219 93.585938 296.019531 93.667969 296.832031 93.828125 C 297.648438 93.992188 298.4375 94.230469 299.203125 94.546875 C 299.96875 94.863281 300.699219 95.253906 301.386719 95.714844 C 302.078125 96.175781 302.714844 96.695312 303.304688 97.28125 C 303.890625 97.867188 304.414062 98.507812 304.875 99.195312 C 305.335938 99.882812 305.726562 100.613281 306.042969 101.378906 C 306.359375 102.144531 306.597656 102.933594 306.761719 103.746094 C 306.921875 104.558594 307.003906 105.378906 307.003906 106.207031 Z M 349.125 238.292969 C 349.113281 238.914062 349.046875 239.53125 348.917969 240.140625 C 348.789062 240.753906 348.605469 241.34375 348.359375 241.917969 C 348.117188 242.492188 347.820312 243.039062 347.472656 243.554688 C 347.125 244.074219 346.730469 244.550781 346.289062 244.992188 C 345.847656 245.433594 345.367188 245.828125 344.847656 246.175781 C 344.332031 246.527344 343.785156 246.820312 343.207031 247.0625 C 342.632812 247.304688 342.039062 247.492188 341.429688 247.621094 C 340.820312 247.75 340.199219 247.816406 339.578125 247.824219 L 321.042969 247.824219 L 321.042969 106.207031 C 321.042969 105.335938 321 104.464844 320.914062 103.59375 C 320.828125 102.726562 320.703125 101.863281 320.53125 101.007812 C 320.359375 100.152344 320.148438 99.308594 319.894531 98.472656 C 319.640625 97.636719 319.347656 96.816406 319.011719 96.011719 C 318.679688 95.207031 318.304688 94.417969 317.894531 93.648438 C 317.480469 92.878906 317.035156 92.132812 316.546875 91.40625 C 316.0625 90.679688 315.542969 89.980469 314.988281 89.304688 C 314.433594 88.632812 313.847656 87.984375 313.230469 87.367188 C 312.613281 86.75 311.964844 86.167969 311.292969 85.613281 C 310.617188 85.058594 309.914062 84.539062 309.1875 84.054688 C 308.460938 83.570312 307.714844 83.121094 306.941406 82.710938 C 306.171875 82.300781 305.382812 81.925781 304.578125 81.59375 C 303.769531 81.257812 302.949219 80.964844 302.113281 80.710938 C 301.277344 80.460938 300.429688 80.246094 299.574219 80.078125 C 298.714844 79.90625 297.851562 79.777344 296.984375 79.695312 C 296.113281 79.609375 295.242188 79.566406 294.367188 79.566406 L 68.324219 79.566406 L 68.324219 61.054688 C 68.335938 60.433594 68.402344 59.816406 68.53125 59.207031 C 68.660156 58.597656 68.847656 58.003906 69.089844 57.429688 C 69.332031 56.855469 69.628906 56.308594 69.976562 55.792969 C 70.324219 55.273438 70.71875 54.796875 71.160156 54.355469 C 71.601562 53.914062 72.082031 53.519531 72.601562 53.171875 C 73.117188 52.824219 73.664062 52.527344 74.242188 52.285156 C 74.816406 52.042969 75.410156 51.855469 76.019531 51.726562 C 76.628906 51.597656 77.25 51.53125 77.871094 51.523438 L 339.578125 51.523438 C 340.199219 51.53125 340.820312 51.597656 341.429688 51.726562 C 342.039062 51.855469 342.632812 52.042969 343.207031 52.285156 C 343.785156 52.527344 344.332031 52.824219 344.847656 53.171875 C 345.367188 53.519531 345.847656 53.914062 346.289062 54.355469 C 346.730469 54.796875 347.125 55.273438 347.472656 55.792969 C 347.820312 56.308594 348.117188 56.855469 348.359375 57.429688 C 348.605469 58.003906 348.789062 58.597656 348.917969 59.207031 C 349.046875 59.816406 349.113281 60.433594 349.125 61.054688 Z M 349.125 238.292969 " fill-opacity="1" fill-rule="nonzero"/></g><path fill="#000000" d="M 228.378906 165.238281 L 193.84375 160.191406 L 178.398438 128.640625 C 178.082031 128.152344 177.734375 127.683594 177.359375 127.234375 C 176.984375 126.789062 176.582031 126.367188 176.152344 125.96875 C 175.726562 125.574219 175.273438 125.203125 174.800781 124.863281 C 174.324219 124.523438 173.832031 124.214844 173.320312 123.933594 C 172.804688 123.65625 172.277344 123.410156 171.734375 123.195312 C 171.191406 122.984375 170.636719 122.804688 170.070312 122.660156 C 169.503906 122.515625 168.929688 122.410156 168.351562 122.335938 C 167.769531 122.265625 167.1875 122.226562 166.605469 122.226562 C 166.019531 122.226562 165.4375 122.265625 164.859375 122.335938 C 164.28125 122.410156 163.707031 122.515625 163.140625 122.660156 C 162.574219 122.804688 162.019531 122.984375 161.476562 123.195312 C 160.933594 123.410156 160.402344 123.65625 159.890625 123.933594 C 159.378906 124.214844 158.882812 124.523438 158.410156 124.863281 C 157.933594 125.203125 157.484375 125.574219 157.054688 125.96875 C 156.628906 126.367188 156.226562 126.789062 155.851562 127.234375 C 155.476562 127.683594 155.128906 128.152344 154.8125 128.640625 L 139.367188 159.910156 L 104.828125 164.957031 C 103.617188 165.140625 102.449219 165.480469 101.332031 165.988281 C 100.214844 166.492188 99.191406 167.140625 98.253906 167.933594 C 97.316406 168.726562 96.507812 169.628906 95.824219 170.644531 C 95.140625 171.664062 94.609375 172.753906 94.230469 173.917969 C 93.851562 175.085938 93.636719 176.277344 93.59375 177.503906 C 93.546875 178.726562 93.667969 179.933594 93.960938 181.125 C 94.253906 182.3125 94.699219 183.441406 95.308594 184.507812 C 95.914062 185.570312 96.652344 186.535156 97.527344 187.390625 L 122.519531 212.773438 L 116.484375 247.125 C 116.324219 248.339844 116.324219 249.554688 116.484375 250.765625 C 116.648438 251.980469 116.960938 253.152344 117.429688 254.285156 C 117.898438 255.417969 118.503906 256.46875 119.246094 257.441406 C 119.992188 258.414062 120.847656 259.277344 121.816406 260.023438 C 122.820312 260.769531 123.902344 261.355469 125.074219 261.789062 C 126.242188 262.21875 127.449219 262.480469 128.695312 262.566406 C 129.9375 262.652344 131.167969 262.566406 132.386719 262.300781 C 133.605469 262.035156 134.761719 261.601562 135.859375 261.007812 L 166.746094 244.742188 L 197.632812 261.007812 C 199.574219 262 201.632812 262.511719 203.8125 262.550781 C 205.199219 262.550781 206.554688 262.332031 207.875 261.902344 C 209.191406 261.472656 210.414062 260.84375 211.53125 260.023438 C 212.503906 259.277344 213.359375 258.414062 214.101562 257.441406 C 214.847656 256.46875 215.453125 255.417969 215.921875 254.285156 C 216.390625 253.152344 216.703125 251.980469 216.863281 250.765625 C 217.023438 249.554688 217.027344 248.339844 216.867188 247.125 L 210.691406 212.773438 L 235.679688 188.515625 C 236.570312 187.609375 237.324219 186.597656 237.941406 185.488281 C 238.554688 184.375 239.011719 183.203125 239.308594 181.96875 C 239.605469 180.734375 239.734375 179.480469 239.6875 178.214844 C 239.644531 176.945312 239.433594 175.703125 239.050781 174.492188 C 238.699219 173.292969 238.1875 172.164062 237.511719 171.109375 C 236.835938 170.054688 236.023438 169.121094 235.078125 168.300781 C 234.132812 167.476562 233.089844 166.808594 231.949219 166.285156 C 230.808594 165.765625 229.621094 165.417969 228.378906 165.238281 Z M 198.335938 204.640625 C 197.507812 205.4375 196.910156 206.382812 196.539062 207.46875 C 196.164062 208.558594 196.0625 209.671875 196.230469 210.808594 L 202.546875 247.125 L 169.835938 230.019531 C 169.339844 229.742188 168.820312 229.53125 168.273438 229.390625 C 167.726562 229.246094 167.171875 229.175781 166.605469 229.175781 C 166.039062 229.175781 165.484375 229.246094 164.9375 229.390625 C 164.390625 229.53125 163.867188 229.742188 163.375 230.019531 L 130.664062 247.125 L 136.980469 210.808594 C 137.148438 209.671875 137.042969 208.558594 136.671875 207.46875 C 136.300781 206.382812 135.703125 205.4375 134.875 204.640625 L 108.480469 178.839844 L 145.546875 173.511719 C 146.691406 173.359375 147.738281 172.945312 148.679688 172.277344 C 149.625 171.605469 150.359375 170.757812 150.878906 169.726562 L 166.886719 136.214844 L 183.453125 169.726562 C 183.976562 170.757812 184.707031 171.605469 185.652344 172.277344 C 186.59375 172.945312 187.640625 173.359375 188.789062 173.511719 L 225.292969 178.839844 Z M 198.335938 204.640625 " fill-opacity="1" fill-rule="nonzero"/></svg>