<svg xmlns="http://www.w3.org/2000/svg" xmlns:xlink="http://www.w3.org/1999/xlink" width="500" zoomAndPan="magnify" viewBox="0 0 375 374.999991" height="500" preserveAspectRatio="xMidYMid meet" version="1.0"><defs><clipPath id="1fb5675cc6"><path d="M 99 15.382812 L 276 15.382812 L 276 192 L 99 192 Z M 99 15.382812 " clip-rule="nonzero"/></clipPath><clipPath id="708c0de38a"><path d="M 14.441406 214.332031 L 360.1875 214.332031 L 360.1875 359.476562 L 14.441406 359.476562 Z M 14.441406 214.332031 " clip-rule="nonzero"/></clipPath></defs><path fill="#000000" d="M 164.601562 128.222656 C 164.953125 128.53125 172.011719 134.65625 181.855469 136.648438 L 181.855469 146.941406 C 181.855469 150.28125 184.558594 152.984375 187.898438 152.984375 C 191.234375 152.984375 193.941406 150.28125 193.941406 146.941406 L 193.941406 136.632812 C 215.878906 131.949219 221.507812 104.699219 189.546875 95.625 C 171.042969 90.375 177.570312 80.394531 187.898438 80.394531 C 195.109375 80.394531 199.667969 85.402344 199.917969 85.683594 C 202.085938 88.191406 205.875 88.488281 208.40625 86.335938 C 210.949219 84.171875 211.257812 80.355469 209.09375 77.8125 C 208.820312 77.488281 203.28125 71.105469 193.941406 68.984375 L 193.941406 59.679688 C 193.941406 56.34375 191.234375 53.632812 187.898438 53.632812 C 184.558594 53.632812 181.855469 56.34375 181.855469 59.679688 L 181.855469 68.972656 C 161.984375 73.496094 157.125 98.992188 186.25 107.257812 C 215.617188 115.59375 190.839844 134.796875 172.59375 119.148438 C 170.089844 116.945312 166.269531 117.183594 164.0625 119.691406 C 161.855469 122.195312 162.097656 126.015625 164.601562 128.222656 " fill-opacity="1" fill-rule="nonzero"/><g clip-path="url(#1fb5675cc6)"><path fill="#000000" d="M 187.265625 27.335938 C 229.144531 27.335938 263.210938 61.417969 263.210938 103.308594 C 263.210938 145.203125 229.144531 179.285156 187.265625 179.285156 C 145.382812 179.285156 111.3125 145.203125 111.3125 103.308594 C 111.3125 61.417969 145.382812 27.335938 187.265625 27.335938 Z M 187.265625 191.375 C 235.804688 191.375 275.296875 151.871094 275.296875 103.308594 C 275.296875 54.75 235.804688 15.246094 187.265625 15.246094 C 138.722656 15.246094 99.226562 54.75 99.226562 103.308594 C 99.226562 151.871094 138.722656 191.375 187.265625 191.375 " fill-opacity="1" fill-rule="nonzero"/></g><g clip-path="url(#708c0de38a)"><path fill="#000000" d="M 347.894531 230.980469 C 346.003906 241.820312 325.050781 260.699219 306.074219 274.753906 C 272.9375 299.292969 242.816406 314.605469 209.835938 330.675781 C 184.230469 343.289062 136.300781 306.210938 76.460938 327.242188 L 76.460938 262.921875 C 83.773438 256.386719 114.300781 232.277344 160.261719 238.480469 C 186.765625 242.707031 179.554688 245.410156 221.792969 250.226562 C 240.320312 252.339844 257.820312 254.335938 262.824219 262.699219 C 264.1875 264.984375 264.496094 267.757812 263.667969 270.316406 C 257.511719 289.273438 187.757812 261.746094 149.570312 282.65625 C 146.644531 284.261719 145.570312 287.933594 147.171875 290.863281 C 148.769531 293.785156 152.441406 294.867188 155.375 293.261719 C 192.519531 272.921875 264.34375 307.371094 275.164062 274.050781 C 276.515625 269.890625 276.542969 265.472656 275.328125 261.371094 C 281.191406 257 293.441406 248.167969 306.59375 240.484375 C 338.480469 221.863281 346.09375 226.828125 347.296875 228.011719 C 347.628906 228.339844 348.25 228.949219 347.894531 230.980469 Z M 50.46875 347.386719 L 40.4375 347.386719 C 32.765625 347.386719 26.527344 341.144531 26.527344 333.472656 L 26.527344 260.246094 C 26.527344 252.574219 32.765625 246.332031 40.4375 246.332031 L 50.46875 246.332031 C 58.136719 246.332031 64.375 252.574219 64.375 260.246094 L 64.375 333.472656 C 64.375 341.144531 58.136719 347.386719 50.46875 347.386719 Z M 355.777344 219.398438 C 338.058594 201.945312 288.832031 236.273438 268.816406 251.144531 C 259.214844 242.332031 242.300781 240.398438 223.164062 238.214844 C 181.875 233.503906 189.070312 230.816406 162.089844 226.53125 C 132.238281 221.855469 99.128906 230.035156 74.019531 249.25 C 69.867188 240.394531 60.875 234.242188 50.46875 234.242188 L 40.4375 234.242188 C 26.101562 234.242188 14.441406 245.90625 14.441406 260.246094 L 14.441406 333.472656 C 14.441406 347.8125 26.101562 359.476562 40.4375 359.476562 L 50.46875 359.476562 C 62.355469 359.476562 72.398438 351.449219 75.480469 340.53125 C 135.242188 316.183594 181.808594 357.867188 215.105469 341.558594 C 251.175781 324.910156 286.035156 304.636719 313.265625 284.46875 C 333.269531 269.65625 373.542969 236.894531 355.777344 219.398438 " fill-opacity="1" fill-rule="nonzero"/></g></svg>